<svg width="86" height="189" viewBox="0 0 86 189" fill="none" xmlns="http://www.w3.org/2000/svg">
<path d="M22.8115 186.971C20.1176 183.099 17.4053 179.22 14.2635 174.71C16.1302 174.531 17.5119 174.3 18.8996 174.314C48.4098 174.575 71.5728 156.939 81.3063 126.807C87.578 107.389 86.4138 87.9873 81.6085 68.4776C76.1779 46.4512 64.255 29.2086 48.3334 14.8388C40.1762 7.47786 30.5622 3.54221 20.2782 1.31259C17.6013 0.733551 14.8752 0.38024 11.7434 0.843391C13.1123 1.6807 14.4073 3.02256 15.8625 3.28227C51.762 9.70152 80.5522 54.992 79.4701 99.5699C79.0387 117.012 73.9967 132.745 63.503 146.212C51.2953 161.881 29.3462 169.984 11.1853 165.187C15.6456 159.791 23.7577 158.116 25.0574 148.901C17.2633 153.392 10.323 157.372 3.37652 161.372C1.04875 162.712 -0.125108 165.088 1.58708 167.234C7.30053 174.387 13.3334 181.236 19.3417 188.098C19.7591 188.57 20.9259 188.271 21.7486 188.325C22.0927 187.874 22.4552 187.429 22.8115 186.971Z" fill="#001EF4"/>
</svg>
