<svg width="24" height="25" viewBox="0 0 24 25" fill="none" xmlns="http://www.w3.org/2000/svg">
<path d="M9 2.66321C6.38 2.66321 4.25 4.79321 4.25 7.41321C4.25 9.98321 6.26 12.0632 8.88 12.1532C8.96 12.1432 9.04 12.1432 9.1 12.1532C9.12 12.1532 9.13 12.1532 9.15 12.1532C9.16 12.1532 9.16 12.1532 9.17 12.1532C11.73 12.0632 13.74 9.98321 13.75 7.41321C13.75 4.79321 11.62 2.66321 9 2.66321Z" fill="#0080BF"/>
<path d="M14.08 14.8132C11.29 12.9532 6.73996 12.9532 3.92996 14.8132C2.65996 15.6632 1.95996 16.8132 1.95996 18.0432C1.95996 19.2732 2.65996 20.4132 3.91996 21.2532C5.31996 22.1932 7.15996 22.6632 8.99996 22.6632C10.84 22.6632 12.68 22.1932 14.08 21.2532C15.34 20.4032 16.04 19.2632 16.04 18.0232C16.03 16.7932 15.34 15.6532 14.08 14.8132Z" fill="#0080BF"/>
<path d="M19.9899 8.00319C20.1499 9.94319 18.7699 11.6432 16.8599 11.8732C16.8499 11.8732 16.8499 11.8732 16.8399 11.8732H16.8099C16.7499 11.8732 16.6899 11.8732 16.6399 11.8932C15.6699 11.9432 14.7799 11.6332 14.1099 11.0632C15.1399 10.1432 15.7299 8.76319 15.6099 7.26319C15.5399 6.45319 15.2599 5.71319 14.8399 5.08319C15.2199 4.89319 15.6599 4.77319 16.1099 4.73319C18.0699 4.56319 19.8199 6.02319 19.9899 8.00319Z" fill="#0080BF"/>
<path d="M21.9902 17.2532C21.9102 18.2232 21.2902 19.0632 20.2502 19.6332C19.2502 20.1832 17.9902 20.4432 16.7402 20.4132C17.4602 19.7632 17.8802 18.9532 17.9602 18.0932C18.0602 16.8532 17.4702 15.6632 16.2902 14.7132C15.6202 14.1832 14.8402 13.7632 13.9902 13.4532C16.2002 12.8132 18.9802 13.2432 20.6902 14.6232C21.6102 15.3632 22.0802 16.2932 21.9902 17.2532Z" fill="#0080BF"/>
</svg>
