<svg width="24" height="25" viewBox="0 0 24 25" fill="none" xmlns="http://www.w3.org/2000/svg">
<path fill-rule="evenodd" clip-rule="evenodd" d="M13.6664 2.25907C13.6044 2.33065 13.5006 2.56001 13.4357 2.76879C13.3183 3.14616 13.316 3.14894 13.031 3.24474L12.7443 3.34107L12.4321 3.11084C12.197 2.93756 12.0666 2.88061 11.9045 2.88061C11.7071 2.88061 11.652 2.92073 11.2395 3.365C10.7007 3.94532 10.6858 4.02332 11.0118 4.55356L11.2338 4.91463L11.1302 5.20638C11.0289 5.49212 11.0192 5.50062 10.6611 5.62036C10.0664 5.81919 10.0524 5.84295 10.0929 6.58788C10.1139 6.973 10.1598 7.28371 10.211 7.38796C10.3042 7.5772 10.5547 7.67861 10.9305 7.67913C11.1875 7.67953 11.276 7.74117 11.4434 8.03667L11.5639 8.24938L11.4243 8.6104C11.2755 8.99529 11.253 9.1858 11.3369 9.35058C11.3656 9.40689 11.6102 9.6003 11.8804 9.7804C12.524 10.2093 12.621 10.2101 13.0402 9.78982C13.3632 9.46593 13.451 9.43291 13.7961 9.50547C13.9204 9.53161 13.9925 9.61047 14.1193 9.85862C14.3003 10.2132 14.4852 10.3969 14.6609 10.3969C14.8646 10.3969 15.8043 10.0402 15.9194 9.91916C16.0196 9.81387 16.0271 9.75392 15.9964 9.30068L15.9625 8.79883L16.1711 8.58479L16.3795 8.3708L16.8068 8.43758C17.2034 8.49962 17.2446 8.49615 17.3808 8.3893C17.5753 8.23678 17.896 7.34176 17.8735 7.01457C17.8586 6.79816 17.8328 6.76619 17.4725 6.51665C17.097 6.25658 17.0868 6.243 17.0579 5.96738C17.0283 5.68511 17.0286 5.68442 17.3466 5.36301C17.7739 4.93134 17.7766 4.78061 17.3693 4.09478C16.9756 3.43173 16.8916 3.39102 16.3344 3.59304L15.9101 3.74683L15.6618 3.58835C15.4357 3.4441 15.413 3.40912 15.4093 3.1986C15.4022 2.80313 15.3152 2.45524 15.1985 2.35591C15.1323 2.29954 14.8871 2.23374 14.5983 2.19483C13.9058 2.10146 13.7963 2.10903 13.6664 2.25907ZM14.441 4.85965C14.5792 4.90301 14.7781 5.0438 14.9514 5.22101C15.4491 5.72963 15.5276 6.36904 15.1697 6.99856C14.8688 7.52805 14.2734 7.80691 13.7215 7.67693C12.4311 7.37293 12.2005 5.59145 13.3684 4.95008C13.697 4.76963 14.0574 4.73921 14.441 4.85965ZM5.58079 6.45912C5.43075 6.55868 5.38334 6.65177 5.26239 7.08442C5.18429 7.36402 5.10217 7.62819 5.07995 7.67155C5.05773 7.71492 4.88788 7.81032 4.70252 7.88357L4.36547 8.01673L3.93376 7.73377C3.5862 7.50597 3.4537 7.4504 3.25448 7.44901C3.01297 7.44734 2.99443 7.46093 2.49133 8.00724C1.95104 8.59392 1.79264 8.86832 1.85166 9.11544C1.87102 9.19655 2.01985 9.4613 2.18233 9.70367L2.4778 10.1444L2.36719 10.5252L2.25664 10.906L1.76437 11.0926C1.22843 11.2958 0.998904 11.5005 1 11.7745C1.00132 12.0935 1.20791 13.3279 1.28046 13.4499C1.40795 13.6646 1.66245 13.7503 2.17193 13.7503H2.64039L2.86094 14.0975L3.0815 14.4447L2.91479 14.9672C2.72866 15.5507 2.73444 15.7904 2.9396 15.993C3.00747 16.06 3.3223 16.2723 3.63917 16.4648C4.50022 16.9877 4.58471 16.9739 5.23478 16.2036L5.48207 15.9106L5.85559 15.9359L6.2291 15.9612L6.50785 16.418C6.66115 16.6692 6.83891 16.9132 6.90282 16.9604C7.09726 17.1035 7.38662 17.0583 8.0615 16.7796C8.71536 16.5095 8.8978 16.3773 8.95655 16.1312C8.9841 16.0157 8.9236 15.4757 8.83549 15.0512C8.81921 14.9727 8.89549 14.8376 9.0732 14.6304L9.33496 14.3251L9.86727 14.3875C10.3138 14.4398 10.4251 14.4361 10.5574 14.3641C10.796 14.2344 10.8251 14.1769 11.0681 13.3553C11.2655 12.6877 11.2857 12.5698 11.232 12.3986C11.1543 12.1511 11.0763 12.0796 10.571 11.7922L10.1597 11.5583L10.0968 11.1655L10.0339 10.7727L10.4393 10.3313C10.9965 9.7246 10.9957 9.64863 10.4235 8.76419C10.1918 8.40607 9.96292 8.08142 9.91474 8.04269C9.75677 7.91555 9.38793 7.95995 8.93564 8.1604L8.50289 8.3523L8.16743 8.15878L7.83192 7.96527L7.79611 7.63444C7.71328 6.87009 7.69733 6.80816 7.54046 6.64327C7.37084 6.4649 7.2456 6.43836 6.2796 6.37598C5.81653 6.34603 5.737 6.35551 5.58079 6.45912ZM16.5293 9.29415C16.3588 9.40343 16.3042 9.52161 15.9549 10.5347C15.8832 10.7428 15.8491 10.7693 15.4924 10.8934C15.2807 10.9672 15.0773 11.0287 15.0405 11.0302C15.0037 11.0317 14.7455 10.8638 14.4666 10.6571C14.0211 10.3268 13.9291 10.2813 13.7084 10.2817C13.391 10.2821 13.296 10.3493 12.582 11.0778C11.757 11.9197 11.7371 12.0514 12.2975 12.9645L12.6086 13.4713L12.4692 13.8375C12.3925 14.0389 12.3298 14.2309 12.3298 14.264C12.3298 14.3499 12.2089 14.4037 11.5979 14.5899C11.1567 14.7244 11.0291 14.7896 10.8966 14.9481C10.7083 15.1737 10.6938 15.3964 10.7941 16.5225C10.8928 17.6307 10.9354 17.6681 12.2748 17.8273L12.5773 17.8633L12.8093 18.2675L13.0413 18.6718L12.8231 19.2477C12.5869 19.8708 12.5509 20.1991 12.6913 20.4483C12.7803 20.6059 14.1257 21.5712 14.3559 21.6425C14.6461 21.7324 14.8556 21.6218 15.356 21.1146L15.841 20.6232L16.262 20.6848C16.4935 20.7186 16.6921 20.7463 16.7034 20.7463C16.7146 20.7463 16.8638 21.0084 17.0348 21.3287C17.3714 21.9592 17.5544 22.1333 17.8806 22.1337C18.0904 22.1339 19.5343 21.6546 19.7301 21.5198C19.7992 21.4722 19.8962 21.3433 19.9459 21.2333C20.0264 21.055 20.0288 20.9585 19.9683 20.3412C19.931 19.9605 19.9116 19.6423 19.9253 19.634C19.939 19.6257 20.088 19.4806 20.2566 19.3118L20.5629 19.0047L21.0528 19.0948C21.8607 19.2433 22.1591 19.195 22.3512 18.8846C22.4968 18.6493 23.0002 17.166 23 16.9727C22.9997 16.6587 22.8262 16.4493 22.2664 16.087L21.7412 15.7472L21.7062 15.3703C21.687 15.1631 21.6608 14.9528 21.6478 14.9031C21.6329 14.8457 21.8042 14.6395 22.1184 14.3366C22.65 13.8241 22.7693 13.5933 22.6772 13.2557C22.6517 13.162 22.4631 12.7862 22.2583 12.4205C21.5878 11.2235 21.4978 11.1842 20.3898 11.6035L19.9518 11.7692L19.5773 11.5074C19.358 11.3541 19.1933 11.1955 19.1798 11.1248C19.1672 11.0583 19.1447 10.7656 19.1299 10.4742C19.1006 9.90031 19.0135 9.64753 18.7925 9.4953C18.6518 9.39845 17.3904 9.18522 16.95 9.18389C16.8017 9.18349 16.6331 9.2276 16.5293 9.29415ZM6.81361 9.94385C7.23735 10.1105 7.65481 10.5551 7.82009 11.0157C7.97866 11.4578 7.95589 12.1491 7.77026 12.5274C7.33993 13.4044 6.39461 13.8125 5.52266 13.4981C4.93403 13.2858 4.40964 12.5958 4.32455 11.9216C4.28401 11.6006 4.39831 11.0256 4.55578 10.7579C4.79696 10.3482 5.21047 10.0041 5.61957 9.87279C5.90608 9.78086 6.48712 9.81544 6.81361 9.94385ZM17.5807 13.443C18.5749 13.8066 19.2222 14.9118 19.0485 15.9486C18.9148 16.7464 18.5139 17.3176 17.8431 17.6662C17.4444 17.8733 17.3967 17.8842 16.8979 17.882C16.4835 17.8802 16.3057 17.8519 16.0564 17.7478C15.5955 17.5555 15.1816 17.1324 14.9292 16.5955C14.7354 16.1834 14.7225 16.1229 14.7244 15.6324C14.727 14.9376 14.8651 14.5662 15.304 14.073C15.9089 13.3932 16.7833 13.1512 17.5807 13.443Z" fill="#0080BF"/>
</svg>
