<svg width="73" height="72" viewBox="0 0 73 72" fill="none" xmlns="http://www.w3.org/2000/svg">
<path d="M41.1772 39.289C42.8214 39.3838 44.2387 38.1198 44.3406 36.4761L44.8885 27.416C44.9394 26.6123 44.6693 25.8452 44.1357 25.2458C43.6021 24.6465 42.8646 24.2887 42.068 24.2449H41.8998C40.3291 24.2449 39.0065 25.4721 38.9117 27.0653L38.3639 36.1178V36.1469C38.3272 36.9435 38.5901 37.7034 39.1166 38.2951C39.6502 38.8945 40.3877 39.2523 41.1843 39.2961L41.1772 39.289Z" fill="#0080BF"/>
<path d="M48.7037 38.9762C50.3479 39.071 51.7652 37.807 51.8671 36.1633L52.2616 29.551C52.3126 28.7473 52.0424 27.9802 51.5088 27.3809C50.9752 26.7815 50.2377 26.4237 49.4411 26.3799H49.2729C47.7022 26.3799 46.3796 27.6071 46.2848 29.2003L45.8904 35.8126C45.8394 36.6164 46.1095 37.3834 46.6431 37.9828C47.1767 38.5822 47.9142 38.9399 48.7109 38.9837L48.7037 38.9762Z" fill="#0080BF"/>
<path d="M35.2379 34.9794C35.9101 35.1618 36.4651 35.542 36.8672 36.0461L37.225 26.0364C37.2541 25.2327 36.9692 24.4728 36.4213 23.8882C35.8734 23.3036 35.1354 22.9677 34.3316 22.9382C32.6804 22.8796 31.292 24.1802 31.2339 25.8315L30.9562 33.7155C30.9562 33.7155 30.9562 33.7812 30.9414 33.8179C31.9933 34.1028 33.0749 34.3953 34.0468 34.6583C34.4703 34.775 34.8724 34.8846 35.2378 34.9799L35.2379 34.9794Z" fill="#0080BF"/>
<path d="M27.5521 32.9324C28.0638 33.0568 28.6407 33.2026 29.2544 33.3708V27.2406C29.2544 25.5894 27.9098 24.2449 26.2586 24.2449C24.6073 24.2449 23.2628 25.5894 23.2628 27.2406V33.5609C24.5415 32.8157 26.0832 32.5747 27.5593 32.9396L27.5521 32.9324Z" fill="#0080BF"/>
<path d="M48.8726 40.4646H48.6168C47.4186 40.3988 46.3151 39.8652 45.5191 38.9668C45.4095 38.8424 45.3071 38.7109 45.2123 38.5794C44.4233 39.9091 42.9764 40.7857 41.3547 40.7857H41.0989L41.1427 40.0406L41.0989 40.7857C39.9007 40.72 38.7972 40.1863 38.0012 39.2879C37.8188 39.0759 37.6506 38.8567 37.5114 38.6228V38.6376C37.5114 38.6376 37.4895 38.7104 37.4824 38.74C37.1465 40.1941 36.2913 41.3337 34.9468 42.1374C33.8215 42.8096 32.3236 43.2479 30.4827 43.4451C31.1987 43.8905 32.0315 44.4532 32.9087 45.1035C36.2261 47.5657 38.4471 50.0936 39.4991 52.6143C39.6596 52.994 39.4772 53.4328 39.0975 53.5862C38.7178 53.7468 38.279 53.5643 38.1256 53.1846C35.8458 47.7339 27.6776 43.5256 27.5971 43.4889C27.2903 43.3355 27.1293 42.9849 27.2098 42.6485C27.2903 42.3127 27.5895 42.0787 27.933 42.0787C30.7167 42.0787 32.8211 41.6623 34.1876 40.8515C35.1814 40.2598 35.7879 39.4561 36.0361 38.3965C36.2405 37.527 35.7221 36.6576 34.8598 36.4236C34.4944 36.3288 34.0928 36.2193 33.6687 36.1021C31.572 35.5323 28.9559 34.8162 27.2098 34.385C25.712 34.0125 24.1264 34.4798 23.0745 35.6052C20.7581 38.0601 19.5966 41.2893 18.9315 43.5033C18.3398 45.4614 18.5222 47.5362 19.4503 49.3628L26.6324 61.0972C26.6324 61.0972 26.6544 61.1263 26.6615 61.1482C27.085 61.9667 27.3047 62.8871 27.3047 63.8076V65.9997H47.8867V62.3098C47.8867 62.244 47.8938 62.1711 47.9157 62.1054L51.7224 48.7203C52.3946 46.3528 52.7381 43.8979 52.7381 41.4357L52.6286 38.4619C51.8177 39.682 50.4365 40.4709 48.8948 40.4709L48.8726 40.4646Z" fill="#0080BF"/>
<path d="M35.6486 12.7C36.0578 12.7 36.3937 12.3641 36.3937 11.9549V6.74511C36.3937 6.33586 36.0578 6 35.6486 6C35.2393 6 34.9034 6.33586 34.9034 6.74511V11.9549C34.9034 12.3641 35.2393 12.7 35.6486 12.7Z" fill="#0080BF"/>
<path d="M9.45435 43.7175H4.24511C3.83586 43.7175 3.5 44.0534 3.5 44.4626C3.5 44.8719 3.83586 45.2078 4.24511 45.2078H9.45487C9.86412 45.2078 10.2 44.8719 10.2 44.4626C10.2 44.0534 9.86412 43.7175 9.45487 43.7175H9.45435Z" fill="#0080BF"/>
<path d="M21.217 17.6753C21.3704 17.6753 21.5238 17.6244 21.6624 17.5291C21.9912 17.2809 22.0641 16.8201 21.8159 16.4843L18.7105 12.2974C18.4623 11.9687 18.0016 11.8958 17.6657 12.144C17.337 12.3922 17.2641 12.8529 17.5123 13.1888L20.6177 17.3756C20.7639 17.5729 20.9902 17.6753 21.217 17.6753H21.217Z" fill="#0080BF"/>
<path d="M12.0171 28.7519L7.09286 27.0496C6.70552 26.9181 6.282 27.1225 6.14287 27.5098C6.01138 27.8972 6.21575 28.3207 6.60308 28.4598L11.5274 30.1621C11.6079 30.1911 11.6879 30.2059 11.7684 30.2059C12.0753 30.2059 12.3678 30.0158 12.4697 29.7019C12.6012 29.3145 12.3968 28.891 12.0095 28.7519L12.0171 28.7519Z" fill="#0080BF"/>
<path d="M67.0511 43.7175H61.8414C61.4321 43.7175 61.0963 44.0534 61.0963 44.4626C61.0963 44.8719 61.4321 45.2078 61.8414 45.2078H67.0511C67.4604 45.2078 67.7962 44.8719 67.7962 44.4626C67.7962 44.0534 67.4604 43.7175 67.0511 43.7175Z" fill="#0080BF"/>
<path d="M53.631 12.144C53.3022 11.8958 52.8344 11.9687 52.5862 12.2974L49.4808 16.4843C49.2326 16.813 49.3055 17.2809 49.6342 17.5291C49.7657 17.6315 49.9262 17.6753 50.0796 17.6753C50.3059 17.6753 50.5327 17.5729 50.679 17.3756L53.7844 13.1888C54.0326 12.8601 53.9597 12.3922 53.631 12.144H53.631Z" fill="#0080BF"/>
<path d="M65.1522 27.5098C65.0207 27.1225 64.5966 26.9181 64.2022 27.0496L59.2779 28.7519C58.8905 28.8834 58.6862 29.3074 58.8177 29.7019C58.9273 30.0087 59.2121 30.2059 59.519 30.2059C59.5995 30.2059 59.6795 30.1912 59.76 30.1621L64.6843 28.4598C65.0717 28.3283 65.276 27.9043 65.1445 27.5098L65.1522 27.5098Z" fill="#0080BF"/>
</svg>
