<svg width="24" height="24" viewBox="0 0 24 24" fill="none" xmlns="http://www.w3.org/2000/svg">
<g clip-path="url(#clip0_60_74)">
<path fill-rule="evenodd" clip-rule="evenodd" d="M23.3729 4.13977C23.0648 3.34256 22.5934 2.61856 21.9891 2.01421C21.3847 1.40986 20.6607 0.93849 19.8635 0.63036C19.1 0.333395 18.2274 0.130732 16.9509 0.072324C15.6743 0.0139162 15.2619 0.00195312 12.0024 0.00195312C8.74279 0.00195312 8.33535 0.0160273 7.05531 0.072324C5.77526 0.128621 4.9055 0.333395 4.14268 0.63036C3.34532 0.938224 2.62116 1.4095 2.01678 2.01388C1.41239 2.61827 0.941137 3.34241 0.633273 4.13977C0.336308 4.90329 0.132958 5.77518 0.0752537 7.05241C0.0175496 8.32964 0.00488281 8.74132 0.00488281 12.0002C0.00488281 15.2591 0.018957 15.6679 0.0752537 16.948C0.13155 18.228 0.336308 19.0971 0.633273 19.8606C0.941403 20.6578 1.41277 21.3818 2.01712 21.9862C2.62147 22.5905 3.34547 23.0619 4.14268 23.37C4.9055 23.667 5.77807 23.8697 7.05531 23.9281C8.33254 23.9865 8.7442 23.9984 12.0024 23.9984C15.2605 23.9984 15.6708 23.9844 16.9509 23.9281C18.2309 23.8718 19.1 23.667 19.8635 23.37C20.6605 23.0616 21.3844 22.5901 21.9887 21.9858C22.593 21.3815 23.0645 20.6576 23.3729 19.8606C23.6699 19.0971 23.8726 18.2252 23.931 16.948C23.9894 15.6707 24.0014 15.2591 24.0014 12.0002C24.0014 8.74132 23.988 8.33246 23.931 7.05241C23.874 5.77236 23.6699 4.90329 23.3729 4.13977ZM12.0024 18.1619C10.7835 18.1619 9.59207 17.8004 8.57866 17.1233C7.56524 16.4461 6.77545 15.4836 6.30906 14.3576C5.84266 13.2315 5.72061 11.9924 5.95844 10.797C6.19628 9.60159 6.78325 8.50358 7.64514 7.64178C8.50704 6.77999 9.6052 6.19312 10.8006 5.95542C11.9961 5.71773 13.2351 5.83986 14.3611 6.30639C15.4871 6.77291 16.4495 7.56287 17.1266 8.57636C17.8036 9.58985 18.1649 10.7814 18.1648 12.0002C18.1648 12.8094 18.0054 13.6107 17.6957 14.3583C17.386 15.1059 16.932 15.7852 16.3598 16.3574C15.7876 16.9296 15.1082 17.3834 14.3606 17.693C13.6129 18.0026 12.8116 18.162 12.0024 18.1619V18.1619ZM18.4061 7.03482C18.1212 7.03482 17.8427 6.95034 17.6059 6.79206C17.369 6.63377 17.1844 6.40879 17.0753 6.14558C16.9663 5.88236 16.9378 5.59274 16.9933 5.31331C17.0489 5.03388 17.1861 4.77719 17.3875 4.57574C17.589 4.37428 17.8457 4.2371 18.1251 4.18151C18.4045 4.12593 18.6942 4.15445 18.9574 4.26348C19.2206 4.37251 19.4456 4.55714 19.6039 4.79403C19.7622 5.03092 19.8467 5.30942 19.8467 5.59433C19.8467 5.97552 19.6956 6.34116 19.4265 6.61117C19.1574 6.88117 18.7923 7.03351 18.4111 7.03482H18.4061ZM16.0009 12.0002C16.001 12.7915 15.7665 13.565 15.327 14.223C14.8875 14.881 14.2627 15.3938 13.5317 15.6967C12.8007 15.9996 11.9963 16.079 11.2202 15.9247C10.4442 15.7704 9.73122 15.3894 9.17166 14.83C8.61209 14.2705 8.23107 13.5577 8.07665 12.7816C7.92223 12.0056 8.00141 11.2011 8.30418 10.4701C8.60696 9.73904 9.11967 9.1142 9.77758 8.67458C10.4355 8.23496 11.209 8.0003 12.0003 8.0003C12.5258 7.99993 13.0462 8.10312 13.5318 8.30397C14.0174 8.50481 14.4587 8.7994 14.8305 9.17086C15.2022 9.54232 15.497 9.98338 15.6982 10.4689C15.8994 10.9543 16.003 11.4747 16.003 12.0002H16.0009Z" fill="#0080BF"/>
</g>
<defs>
<clipPath id="clip0_60_74">
<rect width="24" height="24" fill="white"/>
</clipPath>
</defs>
</svg>
