<svg width="17" height="17" viewBox="0 0 17 17" fill="none" xmlns="http://www.w3.org/2000/svg">
<path d="M8.152 0.666687C3.69578 0.666687 0.0833282 4.27914 0.0833282 8.73536C0.0833282 13.1916 3.69578 16.8042 8.152 16.8042C12.6081 16.8042 16.2207 13.1916 16.2207 8.73536C16.2207 4.27914 12.6081 0.666687 8.152 0.666687ZM5.51928 6.74597C5.51928 6.23607 5.7921 5.82253 6.12836 5.82253C6.46461 5.82253 6.73743 6.23607 6.73743 6.74597C6.73743 7.25616 6.46461 7.66971 6.12836 7.66971C5.7921 7.66971 5.51928 7.25601 5.51928 6.74597ZM8.152 13.6465C7.09796 13.6465 6.24094 12.6552 6.24094 11.4366C6.24094 10.2183 7.09796 9.22739 8.152 9.22739C9.20604 9.22739 10.0631 10.2183 10.0631 11.4366C10.0632 12.6552 9.20604 13.6465 8.152 13.6465ZM10.3156 7.66971C9.97937 7.66971 9.70656 7.25616 9.70656 6.74597C9.70656 6.23607 9.97937 5.82253 10.3156 5.82253C10.6519 5.82253 10.9247 6.23607 10.9247 6.74597C10.9247 7.25601 10.6519 7.66971 10.3156 7.66971ZM10.7871 5.08598L8.30301 5.908C8.27412 5.91768 8.24418 5.92453 8.21351 5.92856C8.20949 5.92915 8.20532 5.93034 8.20129 5.93079C8.18506 5.93258 8.16823 5.93198 8.15156 5.93183C8.13517 5.93198 8.11879 5.93258 8.10271 5.93094C8.09839 5.93049 8.09407 5.92915 8.08976 5.92856C8.05967 5.92468 8.03034 5.91798 8.00174 5.9083L5.5169 5.08598C5.27133 5.00467 5.13805 4.73959 5.21921 4.49388C5.30052 4.24817 5.56545 4.11473 5.81161 4.19619L8.15215 4.97057L10.4924 4.19604C10.7381 4.11488 11.0035 4.24831 11.0848 4.49373C11.166 4.7393 11.0327 5.00467 10.7871 5.08598Z" fill="#E11313"/>
</svg>
