<svg width="24" height="25" viewBox="0 0 24 25" fill="none" xmlns="http://www.w3.org/2000/svg">
<path d="M17 3.69275H7C4 3.69275 2 5.19275 2 8.69275V15.6927C2 19.1927 4 20.6927 7 20.6927H17C20 20.6927 22 19.1927 22 15.6927V8.69275C22 5.19275 20 3.69275 17 3.69275ZM17.47 9.78275L14.34 12.2827C13.68 12.8127 12.84 13.0727 12 13.0727C11.16 13.0727 10.31 12.8127 9.66 12.2827L6.53 9.78275C6.21 9.52275 6.16 9.04275 6.41 8.72275C6.67 8.40275 7.14 8.34275 7.46 8.60275L10.59 11.1027C11.35 11.7127 12.64 11.7127 13.4 11.1027L16.53 8.60275C16.85 8.34275 17.33 8.39275 17.58 8.72275C17.84 9.04275 17.79 9.52275 17.47 9.78275Z" fill="#0080BF"/>
</svg>
