<svg width="25" height="24" viewBox="0 0 25 24" fill="none" xmlns="http://www.w3.org/2000/svg">
<g clip-path="url(#clip0_29_394)">
<path fill-rule="evenodd" clip-rule="evenodd" d="M0.996582 7.96943H5.97861V24H0.996582V7.96943ZM24.6361 15.2071V24H19.657V16.2038C19.657 14.3452 19.6226 11.9537 17.0675 11.9537C14.4751 11.9537 14.0771 13.9788 14.0771 16.0699V24H9.099V7.96943H13.8782V10.16H13.9442C14.61 8.89925 16.2352 7.57051 18.6593 7.57051C23.7083 7.57051 24.641 10.8909 24.641 15.2051L24.6361 15.2071ZM6.37261 2.89285C6.3728 3.46431 6.20354 4.02299 5.88618 4.49822C5.56881 4.97346 5.11757 5.3439 4.58964 5.56268C4.06171 5.78146 3.48077 5.83875 2.92027 5.72731C2.35978 5.61587 1.84497 5.34072 1.44088 4.93663C1.0368 4.53255 0.761643 4.01768 0.650204 3.45719C0.538765 2.8967 0.596005 2.31575 0.814784 1.78783C1.03356 1.2599 1.40408 0.808727 1.87931 0.491361C2.35455 0.173994 2.91315 0.00468817 3.48462 0.00488298C4.25031 0.00566523 4.98442 0.310186 5.52585 0.851614C6.06728 1.39304 6.37182 2.12715 6.37261 2.89285Z" fill="#0080BF"/>
</g>
<defs>
<clipPath id="clip0_29_394">
<rect width="24.0414" height="24" fill="white" transform="translate(0.599609)"/>
</clipPath>
</defs>
</svg>
