<svg width="73" height="72" viewBox="0 0 73 72" fill="none" xmlns="http://www.w3.org/2000/svg">
<path d="M36.5139 9.00486H36.5135C36.1364 9.27581 35.4829 9.70394 34.2466 10.2065C32.4807 10.9246 29.8068 11.6295 26.1471 11.6295C22.4875 11.6295 19.8149 10.9246 18.0489 10.2065C17.3408 9.91871 16.8758 9.64643 16.447 9.39541V16.4411C16.4611 16.4557 16.4773 16.4579 16.4923 16.4668L20.3897 18.8018C21.3579 19.3823 21.835 20.5152 21.6719 21.6008L23.7658 22.8564L33.0201 20.269C33.5014 20.1349 33.987 20.1088 34.4526 20.1756C35.6407 20.3483 36.6968 21.1333 37.2244 22.2861L39.549 21.6397C40.0303 21.5056 40.518 21.4781 40.9844 21.545V21.5446C40.9882 21.5441 40.9921 21.5441 40.9959 21.5446H40.9972C41.0027 21.5441 41.0079 21.5441 41.0134 21.5446L49.2021 22.8723L51.3307 21.5963C51.1675 20.5108 51.6446 19.3769 52.6128 18.7969L56.5107 16.4619C56.5248 16.4473 56.5406 16.4451 56.556 16.4362V9.36037C56.0998 9.61582 55.5716 9.90227 54.8109 10.2033C53.0056 10.9179 50.3369 11.6241 46.8558 11.6241C43.3746 11.6241 40.705 10.9175 38.8997 10.2033C37.6032 9.69021 36.9044 9.25898 36.5162 9L36.5139 9.00486ZM15.2052 17.4461C15.0767 17.4461 14.949 17.4607 14.8264 17.4908C14.4993 17.5816 14.2063 17.8052 14.0188 18.1426L6.68464 31.3263C6.30924 32.0011 6.5232 32.8304 7.17278 33.2195L11.0711 35.5553C11.6344 35.8927 12.3079 35.7709 12.7214 35.2923C12.7512 35.2392 12.7884 35.1905 12.8311 35.1476C12.852 35.1152 12.8734 35.0825 12.8922 35.0488L20.2255 21.865C20.2464 21.8287 20.2639 21.7907 20.2806 21.7539L20.281 21.7535C20.2947 21.6977 20.3152 21.6441 20.3421 21.5941C20.5368 20.9813 20.3019 20.3106 19.7373 19.9723L15.8399 17.6373C15.7609 17.5899 15.6797 17.5522 15.5973 17.5221V17.5217H15.5811C15.4568 17.4783 15.3299 17.4553 15.2044 17.4513L15.2052 17.4461ZM57.7953 17.4461C57.6718 17.4461 57.5476 17.4731 57.4254 17.5152H57.425C57.4169 17.5201 57.4087 17.5249 57.4002 17.5294C57.3186 17.559 57.2383 17.5971 57.1602 17.6431L53.2627 19.9782C52.6969 20.3173 52.462 20.9903 52.6589 21.604V21.6044C52.6853 21.6535 52.7058 21.7058 52.7195 21.7602C52.7357 21.7983 52.7545 21.8346 52.7746 21.8714L60.1075 35.0552C60.1284 35.0906 60.1485 35.1242 60.1707 35.1565H60.1711C60.2121 35.1986 60.248 35.2455 60.277 35.2969C60.6909 35.7768 61.3661 35.8999 61.9298 35.5616L65.8272 33.2253C66.4768 32.8362 66.6908 32.0083 66.3154 31.3336L58.9812 18.1475C58.7937 17.8102 58.5007 17.587 58.1736 17.4958C58.051 17.4622 57.9233 17.4471 57.7948 17.4511L57.7953 17.4461ZM34.0561 21.4897C33.8281 21.4751 33.594 21.5087 33.3604 21.5738L23.8542 24.2315H23.8537H23.8525H23.8456C23.8341 24.2364 23.8226 24.2413 23.8106 24.2457C23.794 24.2514 23.7769 24.2563 23.7594 24.2603H23.7453C23.7303 24.2607 23.7154 24.2607 23.7 24.2603C23.6919 24.2607 23.6833 24.2612 23.6748 24.2616C23.6633 24.2616 23.6513 24.2612 23.6398 24.2603H23.6069H23.5787C23.5655 24.2559 23.5527 24.251 23.5398 24.2457C23.533 24.2461 23.5262 24.2461 23.5193 24.2457C23.5052 24.2417 23.4912 24.2368 23.4775 24.2315C23.4702 24.2266 23.4634 24.2218 23.4566 24.2169C23.4425 24.212 23.4288 24.2063 23.4151 24.2001H23.4015C23.3848 24.1926 23.369 24.1837 23.3532 24.1744H23.3511L21.1781 22.8714L14.1916 35.4319L16.1464 36.7132H16.1459H16.1532L19.9029 39.1713C19.9213 39.1523 19.9384 39.1319 19.9572 39.112L23.5514 35.3806C24.1728 34.7355 24.9911 34.4136 25.8093 34.4136C26.6281 34.4136 27.4464 34.7355 28.0677 35.3806C28.7997 36.1403 29.1004 37.1834 28.9701 38.1756C29.1136 38.1565 29.2588 38.1446 29.404 38.1446C30.2227 38.1446 31.041 38.4664 31.6624 39.1115C32.3939 39.8712 32.6946 40.9134 32.5648 41.9056C32.7087 41.8865 32.8535 41.8746 32.9987 41.8746C33.8174 41.8746 34.6361 42.1978 35.2579 42.8428C35.9899 43.6026 36.2902 44.6447 36.1603 45.6369C36.3038 45.6179 36.4486 45.6059 36.5934 45.6059C37.4121 45.6059 38.2308 45.9278 38.8526 46.5729C40.0954 47.863 40.0954 49.9691 38.8526 51.2593L37.5155 52.6472L39.8896 55.1119C40.6378 55.889 41.8136 55.889 42.5618 55.1119C43.31 54.3349 43.31 53.1125 42.5618 52.3356L42.5609 52.3347C42.5584 52.3298 42.5562 52.3249 42.5537 52.3201L41.0201 50.7284H41.0205C40.8304 50.5367 40.7719 50.2445 40.8719 49.9899C40.9718 49.7354 41.2101 49.5689 41.4753 49.5689C41.6517 49.5689 41.8204 49.6424 41.9434 49.7734L43.4834 51.373C44.2317 52.15 45.4075 52.15 46.1556 51.373C46.9039 50.5965 46.9039 49.3745 46.1556 48.598L44.6386 47.0223C44.4486 46.8302 44.3897 46.5384 44.4892 46.2834C44.5891 46.0288 44.8278 45.8619 45.093 45.8619C45.2694 45.8619 45.4381 45.9358 45.5611 46.0673L47.079 47.6422C47.8272 48.4192 49.0017 48.4192 49.7504 47.6422C50.4986 46.8656 50.4986 45.6437 49.7504 44.8672L48.1629 43.2184C48.0347 43.0931 47.9608 42.9191 47.9583 42.7363C47.9557 42.5539 48.0249 42.3776 48.1496 42.2488C48.2743 42.1195 48.4439 42.0483 48.6203 42.0509C48.7966 42.0536 48.9641 42.1302 49.0849 42.2634L50.6732 43.9122C51.4214 44.6892 52.5959 44.6892 53.3446 43.9122C54.0928 43.1356 54.0928 41.9127 53.3446 41.1358L41.4712 28.8123L30.7896 31.8441C28.8631 32.3909 26.8712 31.1875 26.3557 29.1908C25.8402 27.1936 26.9882 25.1287 28.9135 24.5935L35.9385 22.6397C35.5387 21.9464 34.834 21.513 34.059 21.485L34.0561 21.4897ZM40.4088 22.863C40.2367 22.863 40.062 22.8953 39.8865 22.944L37.0114 23.7436H37.011H36.9995L29.2468 25.8997C27.9984 26.2468 27.2754 27.5445 27.6102 28.8412C27.945 30.138 29.1973 30.8933 30.4405 30.5404L41.3944 27.4315V27.4319C41.4764 27.3948 41.5644 27.3757 41.6532 27.3753C41.8155 27.3753 41.9718 27.4377 42.0918 27.551C42.1038 27.5617 42.1153 27.5732 42.1264 27.5847L53.3525 39.2361L56.5518 36.751H56.5522C56.5629 36.7422 56.574 36.7337 56.5855 36.7253C56.5953 36.7187 56.6052 36.7125 56.6154 36.7063H56.6244L56.6513 36.6895H56.6517H56.653L56.8003 36.6014C56.8499 36.5611 56.905 36.5283 56.9639 36.504L58.7986 35.4051L51.8245 22.8685L49.7583 24.1077L49.7579 24.1073C49.6195 24.2264 49.4397 24.2813 49.2612 24.2583C49.2492 24.2587 49.2369 24.2587 49.2245 24.2583L40.8081 22.8933H40.8035C40.7291 22.8787 40.6544 22.8765 40.5784 22.8743H40.578H40.4067L40.4088 22.863ZM25.8065 35.7521C25.3256 35.7521 24.8448 35.9465 24.4706 36.3348L20.8763 40.0648C20.1281 40.8418 20.1281 42.0642 20.8763 42.8412C21.6246 43.6181 22.8004 43.6182 23.5485 42.8412L27.1428 39.1098C27.891 38.3328 27.891 37.1113 27.1428 36.3348C26.7687 35.9465 26.2874 35.7521 25.8064 35.7521H25.8065ZM56.5538 38.4435L54.283 40.2073C55.5069 41.4992 55.501 43.5899 54.2646 44.8733C53.533 45.6326 52.529 45.9443 51.5723 45.8102C51.7026 46.8023 51.4019 47.8445 50.6703 48.6042C49.9392 49.3631 48.9347 49.6752 47.9785 49.5411C48.1083 50.5332 47.8077 51.575 47.0757 52.3343C46.3441 53.0936 45.3392 53.4058 44.3825 53.2712C44.5128 54.2633 44.2121 55.306 43.4801 56.0657C42.2373 57.3559 40.2066 57.3559 38.9637 56.0657L36.5909 53.6019L35.255 54.989C34.0122 56.2791 31.9806 56.2791 30.7374 54.989C30.0054 54.2292 29.7052 53.1866 29.835 52.1944C28.8788 52.3286 27.8743 52.0169 27.1427 51.2576C26.4111 50.4983 26.1105 49.4561 26.2403 48.4643C25.2841 48.5985 24.28 48.2868 23.5485 47.5275C22.8165 46.7678 22.5162 45.7252 22.6461 44.733C21.6898 44.8671 20.6853 44.5559 19.9538 43.7966C19.0509 42.8593 18.8045 41.4917 19.2132 40.3188L16.4466 38.5054V42.2735C16.4466 47.8179 21.4169 53.0949 26.529 56.9296C31.4288 60.6052 36.1002 62.8122 36.4995 63C36.8988 62.8123 41.5702 60.6052 46.47 56.9296C51.5821 53.0946 56.5524 47.8176 56.5524 42.2735L56.5538 38.4435ZM29.4013 39.4835C28.9205 39.4835 28.4396 39.677 28.0654 40.0653L24.4712 43.7967C23.7229 44.5737 23.7229 45.7947 24.4712 46.5717C25.2194 47.3487 26.3952 47.3487 27.1433 46.5717L30.7376 42.8416C31.4858 42.0651 31.4858 40.8422 30.7376 40.0653C30.3635 39.677 29.8822 39.4835 29.4017 39.4835H29.4013ZM32.9956 43.2135C32.5147 43.2135 32.0338 43.4079 31.6597 43.7966L28.0654 47.5276C27.3172 48.3046 27.3172 49.5261 28.0654 50.3026C28.8137 51.0796 29.9894 51.0796 30.7376 50.3026L34.3319 46.5712C35.0801 45.7942 35.0801 44.5731 34.3319 43.7962C33.9577 43.4079 33.4764 43.2131 32.9959 43.2131L32.9956 43.2135ZM36.5899 46.9449C36.109 46.9449 35.6285 47.1393 35.2544 47.5276L31.6593 51.2576C30.911 52.0346 30.911 53.2571 31.6593 54.034C32.4075 54.811 33.5833 54.811 34.3314 54.034L37.9257 50.3026C38.6739 49.5261 38.6739 48.3041 37.9257 47.5276C37.5516 47.1393 37.0703 46.9449 36.5893 46.9449H36.5899Z" fill="#0080BF"/>
</svg>
