<svg width="73" height="72" viewBox="0 0 73 72" fill="none" xmlns="http://www.w3.org/2000/svg">
<path fill-rule="evenodd" clip-rule="evenodd" d="M33.3693 6.06288C32.0321 6.31803 31.6313 6.42089 30.925 6.69037C28.4541 7.63314 26.4897 9.39552 25.2794 11.7554C22.5458 17.0859 25.157 23.5885 30.925 25.8138C33.3749 26.7591 36.2982 26.728 38.8494 25.7296C41.6768 24.6233 44.0112 22.0998 44.984 19.0985C45.241 18.3056 45.2779 17.9482 45.2779 16.2488C45.2779 14.073 45.1031 13.2878 44.2566 11.6592C42.4253 8.13628 38.727 5.94799 34.6938 6.00094C34.1033 6.00871 33.5072 6.03652 33.3693 6.06288ZM29.6375 29.4258C28.1436 29.6798 26.4282 30.3915 25.0841 31.3148C24.2684 31.8752 22.734 33.4016 22.3666 34.0182L22.1441 34.3913L24.623 35.1756C25.9863 35.607 27.7786 36.1334 28.6059 36.3455C31.8023 37.165 32.7218 37.5769 33.9494 38.7394L34.6547 39.4073L35.2293 38.8505C36.4302 37.6871 37.4715 37.2022 40.3822 36.4508C42.4404 35.9196 47.2184 34.4397 47.3943 34.279C47.6473 34.0479 45.7015 31.9811 44.4631 31.1652C43.6191 30.6092 42.5206 30.1017 41.3292 29.7175L40.2637 29.3738L35.2496 29.3489C32.4919 29.3353 29.9664 29.3698 29.6375 29.4258ZM11.9967 36.3435V39.5962L13.0309 39.6526C14.2019 39.7165 14.9104 39.9848 15.753 40.6836C17.1019 41.8022 17.2955 42.5748 17.2319 46.5875C17.1744 50.224 17.1117 50.4788 16.0173 51.5334C15.1731 52.3469 14.3244 52.7525 13.3146 52.8247C11.8589 52.9289 11.9963 52.6994 11.9994 55.0219C12.0026 57.3116 12.0926 57.6505 12.9391 58.5582C14.2315 59.9441 16.6146 61.0083 21.0221 62.168C23.156 62.7294 28.2136 64.1989 31.5782 65.235C32.6323 65.5596 33.6243 65.8645 33.7829 65.9126L34.0709 66L34.0236 54.8475C33.9875 46.3357 33.9384 43.5512 33.8165 43.0878C33.4012 41.5095 32.4731 40.2608 31.2283 39.6056C30.8891 39.4271 29.6526 39.0271 28.4806 38.7168C24.5401 37.6736 18.7884 35.7468 13.8456 33.8139L11.9967 33.0909V36.3435ZM56.5596 33.4481C52.1313 35.2659 44.9709 37.6713 40.7327 38.7649C39.6806 39.0364 38.5848 39.3746 38.2975 39.5167C37.5291 39.8965 36.486 40.9081 36.1315 41.6172C35.3541 43.1727 35.386 42.6363 35.3423 54.8522C35.3098 63.9227 35.3326 65.9984 35.464 65.9498C35.7291 65.8522 40.4578 64.4276 43.0842 63.6542C44.4286 63.2583 46.7696 62.6036 48.2863 62.1994C53.7284 60.7489 56.1882 59.4971 57.1109 57.7082C57.4981 56.9575 57.4998 56.9457 57.4998 54.9754V52.9965L57.0297 52.9201C55.1796 52.6197 53.9619 51.7802 53.249 50.3137L52.9244 49.6457V46.2453V42.8449L53.2591 42.1531C53.8999 40.8288 55.3622 39.8064 56.8249 39.6602L57.4998 39.5926V36.3307C57.4998 34.5366 57.4856 33.0731 57.4684 33.0783C57.4512 33.0835 57.0422 33.25 56.5596 33.4481ZM11.4637 41.9859C10.7415 42.2356 10.1718 42.7191 9.84714 43.3577C9.58102 43.8814 9.54817 44.1316 9.50994 45.9262C9.46381 48.0901 9.56698 48.7604 10.0582 49.4872C10.9962 50.875 13.2931 51.0089 14.5284 49.748C15.1778 49.0851 15.2561 48.7036 15.2531 46.2188C15.25 43.5982 15.1596 43.2606 14.2627 42.5168C13.4703 41.8596 12.4104 41.6586 11.4637 41.9859ZM56.6367 41.9949C55.9745 42.195 55.2967 42.7912 54.9802 43.4521C54.78 43.8701 54.7471 44.2561 54.7448 46.2188C54.7417 48.68 54.7961 48.9551 55.4282 49.6814C56.4904 50.9018 58.5125 50.9337 59.6478 49.748C60.3573 49.0069 60.4345 48.7105 60.4855 46.5302C60.5235 44.9129 60.4919 44.3706 60.3277 43.8234C60.0581 42.9249 59.3866 42.2604 58.4868 42.0015C57.7027 41.7759 57.3656 41.7747 56.6367 41.9949Z" fill="#0080BF"/>
</svg>
